<?xml version="1.0" encoding="UTF-8" standalone="no"?>
<!-- Created with Inkscape (http://www.inkscape.org/) -->

<svg
   width="256mm"
   height="256mm"
   viewBox="0 0 256 256"
   version="1.1"
   id="svg1"
   inkscape:version="1.4.2 (f4327f4, 2025-05-13)"
   sodipodi:docname="MainChara.svg"
   xmlns:inkscape="http://www.inkscape.org/namespaces/inkscape"
   xmlns:sodipodi="http://sodipodi.sourceforge.net/DTD/sodipodi-0.dtd"
   xmlns="http://www.w3.org/2000/svg"
   xmlns:svg="http://www.w3.org/2000/svg">
  <sodipodi:namedview
     id="namedview1"
     pagecolor="#ffffff"
     bordercolor="#000000"
     borderopacity="0.25"
     inkscape:showpageshadow="2"
     inkscape:pageopacity="0.0"
     inkscape:pagecheckerboard="0"
     inkscape:deskcolor="#d1d1d1"
     inkscape:document-units="mm"
     showgrid="true"
     inkscape:zoom="0.73512619"
     inkscape:cx="297.90804"
     inkscape:cy="401.97181"
     inkscape:window-width="2005"
     inkscape:window-height="1211"
     inkscape:window-x="67"
     inkscape:window-y="50"
     inkscape:window-maximized="0"
     inkscape:current-layer="layer1">
    <inkscape:grid
       id="grid1"
       units="mm"
       originx="0"
       originy="0"
       spacingx="256"
       spacingy="256"
       empcolor="#0099e5"
       empopacity="0.30196078"
       color="#0099e5"
       opacity="0.14901961"
       empspacing="5"
       enabled="true"
       visible="true" />
  </sodipodi:namedview>
  <defs
     id="defs1">
    <inkscape:path-effect
       effect="powerstroke"
       message=""
       id="path-effect3"
       is_visible="true"
       lpeversion="1.3"
       scale_width="1"
       interpolator_type="CentripetalCatmullRom"
       interpolator_beta="0.75"
       start_linecap_type="round"
       end_linecap_type="round"
       offset_points="51.2912,5.3987329"
       linejoin_type="spiro"
       miter_limit="4"
       not_jump="true"
       sort_points="true" />
    <inkscape:path-effect
       effect="simplify"
       id="path-effect2"
       is_visible="true"
       lpeversion="1.3"
       threshold="0.012"
       steps="1"
       smooth_angles="0"
       helper_size="0"
       simplify_individual_paths="false"
       simplify_just_coalesce="false"
       step="1" />
  </defs>
  <g
     inkscape:label="Layer 1"
     inkscape:groupmode="layer"
     id="layer1">
    <path
       style="fill:#ff0000;stroke-width:0.264583"
       d="m 91.418544,82.780573 c -0.867789,3.677991 -1.537639,7.426256 -2.159492,11.157381 0.125005,0.732298 -0.593127,1.166056 -0.719831,1.799577 -0.255164,1.275813 -0.230063,2.660533 -0.359915,3.959071 -0.259141,2.591408 -1.140288,5.180078 -2.159495,7.558228 -1.142071,2.66483 -2.35267,5.30052 -3.599154,7.91814 -1.752176,3.67957 -0.552611,-0.19749 -1.799579,3.95907 -0.142137,0.4738 -0.239943,0.95977 -0.359915,1.43966 -0.359916,0.59986 -0.828622,1.14666 -1.079746,1.79958 -0.355143,0.92337 -0.406982,1.94078 -0.719831,2.87933 -0.28893,0.86679 -0.811049,1.64613 -1.079746,2.5194 -0.214614,0.69749 -0.167905,1.45545 -0.359915,2.1595 -0.339985,1.2466 -1.068372,2.36151 -1.439665,3.59915 -0.740891,2.46964 -0.904208,5.05945 -1.439661,7.55823 -0.158983,0.74192 -0.520187,1.42746 -0.719831,2.15949 -1.171556,4.2957 -1.439661,8.8969 -1.439661,13.31688 0,3.30554 -0.454202,7.00974 1.079746,10.07763 2.110642,4.22128 4.700315,7.35157 8.637971,10.07763 0.406704,0.28157 0.997228,0.1387 1.439664,0.35992 0.303506,0.15175 0.428855,0.54525 0.719831,0.71983 1.826239,1.09575 4.233116,1.47194 6.118563,2.51941 0.524373,0.29132 0.882706,0.85696 1.439662,1.07975 0.677566,0.27102 1.467183,0.12914 2.159495,0.35991 0.763494,0.2545 1.385662,0.85865 2.159492,1.07975 5.733309,1.63809 12.382289,2.34261 18.355689,1.79958 1.27826,-0.11621 3.14002,-0.49027 4.31899,-1.07975 1.6995,-0.84975 0.42204,-0.78012 2.51941,-1.07975 1.19358,-0.17051 2.40557,-0.1894 3.59915,-0.35991 3.13082,-0.44726 -0.0444,-0.20708 2.51941,-0.71983 0.66651,-0.13331 1.09974,0.19995 1.79958,0 0.51589,-0.1474 0.93067,-0.55017 1.43966,-0.71983 1.23205,-0.41069 1.80191,-0.18113 2.87933,-0.71984 1.45952,-0.72976 2.58644,-1.99691 3.95907,-2.87932 0.67697,-0.4352 1.48986,-0.63333 2.15949,-1.07975 1.41875,-0.94583 2.62759,-2.17406 3.95907,-3.23923 1.14354,-0.91484 2.48727,-1.56637 3.59916,-2.51941 0.32842,-0.28151 0.41396,-0.77388 0.71983,-1.07975 0.30587,-0.30587 0.80282,-0.38753 1.07974,-0.71983 0.34348,-0.41218 0.40798,-1.00307 0.71983,-1.43967 0.29585,-0.41418 0.7839,-0.66555 1.07975,-1.07974 0.78627,-1.10078 0.78849,-2.04542 1.43966,-3.23924 0.41427,-0.75949 1.05277,-1.3857 1.43967,-2.15949 0.22121,-0.44244 0.13869,-0.99723 0.35991,-1.43967 0.26827,-0.53653 0.81148,-0.90313 1.07975,-1.43966 0.22122,-0.44243 0.18623,-0.9765 0.35991,-1.43966 1.72361,-4.59628 -0.23108,1.23978 1.43967,-2.51941 0.88467,-1.99051 1.63291,-4.37218 2.15949,-6.47848 0.45762,-1.83047 0.89224,-3.88357 1.07974,-5.75865 0.1663,-1.66297 -0.16629,-3.37584 0,-5.03881 0.18731,-1.87303 0.53521,-3.47054 0.35992,-5.39874 -0.37363,-4.10989 -0.25206,0.5393 -1.07975,-3.59915 -0.11764,-0.58821 0.0662,-1.20339 0,-1.79958 -0.14812,-1.33312 -0.3669,-2.66501 -0.71983,-3.95907 -0.14117,-0.51763 -0.47988,-0.95978 -0.71983,-1.43966 -0.23994,-0.95978 -0.52581,-1.90923 -0.71983,-2.87933 -0.55099,-2.75495 -1.16162,-5.61707 -2.15949,-8.27805 -0.32511,-0.86696 -1.11456,-2.01238 -1.43966,-2.87933 -0.2148,-0.57279 -0.11147,-1.24056 -0.35992,-1.79958 -0.24363,-0.54815 -0.77112,-0.92528 -1.07975,-1.43966 -0.41406,-0.6901 -0.66568,-1.46938 -1.07974,-2.15949 -0.61725,-1.028752 -1.56427,-1.837679 -2.1595,-2.879327 -0.77244,-1.351775 -1.35635,-2.796016 -2.5194,-3.959069 -0.84833,-0.848331 -1.95768,-1.391452 -2.87933,-2.159495 -0.97973,-0.816438 -1.85907,-1.754216 -2.87932,-2.519407 -2.29536,-1.721514 -5.72934,-2.78274 -8.27806,-3.959072 -0.87822,-0.405331 -1.61664,-1.092441 -2.51941,-1.439661 -1.25583,-0.483013 -3.91648,-0.345721 -5.03882,-0.719831 -0.41036,-0.136789 -0.66382,-0.600998 -1.07974,-0.719831 -1.67961,-0.479888 -0.95978,0.239943 -2.1595,0 -1.31272,-0.262546 -2.61582,-0.551926 -3.95907,-0.719833 -1.07141,-0.133924 -2.16485,0.107439 -3.23924,0 -1.2174,-0.12174 -2.3807,-0.60906 -3.59915,-0.719831 -3.53414,-0.321283 -7.24323,0 -10.797468,0 -0.754293,0 -4.773866,-0.447627 -5.758648,0 -0.939533,0.427062 -1.679607,1.199719 -2.51941,1.79958 z"
       id="path4" />
    <path
       style="fill:#ff0000;stroke-width:0.264583"
       d="m 81.340909,172.39954 c 0,0.47989 -0.479886,1.43966 0,1.43966 0.479888,0 0,-1.91955 0,-1.43966 0,0.95977 -0.171688,1.93503 0,2.87932 0.07738,0.42559 0.583043,0.66938 0.71983,1.07975 0.461542,1.38462 0.365848,2.90304 0.719834,4.31899 0.58797,2.35188 1.590675,4.56312 2.159492,6.83839 0.288705,1.15482 0,2.76619 0,3.95907 0,2.32103 -0.09052,4.58619 0.359915,6.8384 0.09411,0.47056 -0.11639,0.9741 0,1.43966 0.130128,0.52051 0.340448,1.06028 0.719831,1.43966 0.08483,0.0848 0.306263,-0.10731 0.359915,0 0.107307,0.21461 -0.07588,0.4922 0,0.71983 0.05365,0.16096 0.284038,0.20816 0.359916,0.35992 0.107307,0.21461 0,0.47989 0,0.71983 0,2.44997 -0.25173,2.75346 2.159494,3.95907 0.321919,0.16096 0.730576,-0.0873 1.079746,0 0.520513,0.13013 0.941507,0.52057 1.439662,0.71983 1.688457,0.67538 2.787689,0.71983 4.678902,0.71983 0.479888,0 1.040371,0.2662 1.439661,0 0.530329,-0.35355 1.197071,-1.79163 1.439664,-2.51941 0.275241,-0.82572 -0.217151,-1.44567 -0.359915,-2.15949 -0.07058,-0.35293 0.113813,-0.7383 0,-1.07975 -0.620858,-1.86257 -2.470303,-3.17376 -3.599156,-4.6789 -0.481571,-0.64209 -0.879861,-1.59969 -1.439661,-2.15949 -0.189693,-0.18969 -0.530141,-0.17022 -0.719831,-0.35992 -0.494657,-0.49465 -0.642742,-1.25332 -1.079749,-1.79957 -0.546507,-0.68314 -1.212805,-1.25207 -1.439661,-2.1595 -0.05819,-0.23278 0.08911,-0.49705 0,-0.71983 -0.429543,-1.07386 -1.26515,-1.65774 -1.439662,-2.87932 -0.118766,-0.83137 0.138063,-1.69104 0,-2.51941 -0.48515,-2.91091 -0.359915,-5.67062 -0.359915,-8.63798"
       id="path5" />
    <path
       style="fill:#ff0000;stroke-width:0.264583"
       d="m 128.09063,171.37712 c 0,0.47989 -0.47988,1.43966 0,1.43966 0.47989,0 0,-1.91955 0,-1.43966 0,0.95977 -0.17169,1.93503 0,2.87932 0.0774,0.42559 0.58305,0.66938 0.71983,1.07975 0.46154,1.38462 0.36585,2.90304 0.71984,4.31899 0.58797,2.35188 1.59067,4.56312 2.15949,6.83839 0.2887,1.15482 0,2.76619 0,3.95907 0,2.32103 -0.0905,4.58619 0.35991,6.8384 0.0941,0.47056 -0.11639,0.9741 0,1.43966 0.13013,0.52051 0.34045,1.06028 0.71984,1.43966 0.0848,0.0848 0.30626,-0.10731 0.35991,0 0.10731,0.21461 -0.0759,0.4922 0,0.71983 0.0537,0.16096 0.28404,0.20816 0.35992,0.35992 0.1073,0.21461 0,0.47989 0,0.71983 0,2.44997 -0.25173,2.75346 2.15949,3.95907 0.32192,0.16096 0.73058,-0.0873 1.07975,0 0.52051,0.13013 0.9415,0.52057 1.43966,0.71983 1.68845,0.67538 2.78769,0.71983 4.6789,0.71983 0.47989,0 1.04037,0.2662 1.43966,0 0.53033,-0.35355 1.19707,-1.79163 1.43966,-2.51941 0.27525,-0.82572 -0.21715,-1.44567 -0.35991,-2.15949 -0.0706,-0.35293 0.11381,-0.7383 0,-1.07975 -0.62086,-1.86257 -2.4703,-3.17376 -3.59916,-4.6789 -0.48157,-0.64209 -0.87986,-1.59969 -1.43966,-2.15949 -0.18969,-0.18969 -0.53014,-0.17022 -0.71983,-0.35992 -0.49466,-0.49465 -0.64274,-1.25332 -1.07975,-1.79957 -0.5465,-0.68314 -1.2128,-1.25207 -1.43966,-2.1595 -0.0582,-0.23278 0.0891,-0.49705 0,-0.71983 -0.42954,-1.07386 -1.26515,-1.65774 -1.43966,-2.87932 -0.11877,-0.83137 0.13806,-1.69104 0,-2.51941 -0.48515,-2.91091 -0.35992,-5.67062 -0.35992,-8.63798"
       id="path5-8" />
    <path
       style="fill:#ff0000;stroke-width:0.264583"
       d="m 98.976772,83.500401 c -0.479888,0 -1.439664,-0.479885 -1.439664,0 0,0.479888 1.919549,0 1.439664,0 -3.531727,0 -2.414879,-0.282506 -5.038818,-0.71983 -0.82269,-0.137115 -1.734378,-0.09824 -2.51941,-0.359916 -0.997794,-0.332597 -1.737503,-1.418968 -2.879323,-1.799576 -0.548505,-0.182835 -1.255707,-0.357251 -1.799579,-0.719831 -1.089269,-0.726181 -1.369822,-2.524768 -1.799577,-3.599156 -0.22946,-0.573646 -0.85009,-0.750692 -1.079746,-1.439662 -0.413673,-1.241017 -0.879433,-2.478696 -1.439664,-3.599156 -0.107304,-0.214611 0.169667,-0.550164 0,-0.71983 -0.08483,-0.08483 -0.275082,0.08483 -0.359915,0 -0.430715,-0.430716 0.242858,-3.013861 0.359915,-3.599157 0.11621,-0.581043 -0.275722,-1.967957 0,-2.519407 0.151754,-0.303509 0.612526,-0.397912 0.719833,-0.719831 0.07587,-0.227631 -0.07588,-0.492201 0,-0.71983 0.37447,-1.123413 0.239943,0.11997 0.719831,-0.359916 0.01267,-0.01267 0.231767,-0.9516 0.359915,-1.079749 0.169665,-0.169664 0.550164,0.169667 0.719831,0 0.366908,-0.366908 -0.396314,-0.70163 0.359915,-1.079746 0.107308,-0.05365 0.239943,0 0.359916,0 0.119973,-0.239942 0.170222,-0.530137 0.359915,-0.71983 0.169667,-0.169667 0.612526,0.214611 0.719831,0 0.107307,-0.214612 -0.107305,-0.505219 0,-0.719831 0.113281,-0.226565 1.288253,-0.28421 1.439661,-0.359915 0.107307,-0.05365 -0.08483,-0.275082 0,-0.359916 0.352454,-0.352454 1.32738,-0.202517 1.79958,-0.359915 2.727335,-0.909114 -0.129964,0.129963 0.71983,-0.719831 0.574069,-0.574069 2.17582,-0.184041 2.879326,-0.359918 0.1646,-0.04115 0.208161,-0.284038 0.359915,-0.359915 0.655254,-0.327626 7.989186,-0.162195 8.637966,0 0.1646,0.04115 0.19355,0.326641 0.35992,0.359915 1.29186,0.258374 3.0574,-0.420526 4.31899,0 0.16096,0.05365 0.19354,0.326642 0.35991,0.359918 0.47057,0.09411 0.9691,-0.09411 1.43966,0 0.16638,0.03327 0.19355,0.326642 0.35992,0.359916 0.70585,0.141168 1.45364,-0.141171 2.15949,0 0.37202,0.0744 0.70553,0.297545 1.07975,0.359915 0.80948,0.134914 1.71421,-0.161039 2.51941,0 0.85826,0.171651 1.66981,0.507431 2.51941,0.719831 0.34917,0.08729 0.72682,-0.07059 1.07974,0 0.63353,0.126703 1.1623,0.613616 1.79958,0.71983 1.06506,0.177509 2.17035,-0.152699 3.23924,0 0.26557,0.03794 0.45678,0.307303 0.71983,0.359916 0.70585,0.141171 1.44522,-0.08928 2.1595,0 4.75879,0.594849 -0.38529,0.06691 2.87932,0.71983 1.07965,0.215932 2.13884,0.222367 3.23924,0.359916 0.98167,0.122708 1.90347,0.557188 2.87932,0.71983 1.04871,0.174784 2.19715,-0.208417 3.23924,0 1.35222,0.270444 2.60139,0.627187 3.95907,1.079749 0.0941,0.03137 2.09675,0.338998 2.1595,0.359916 0.41037,0.136786 0.70882,0.497276 1.07974,0.71983 1.61015,0.966084 3.4756,1.581478 5.03882,2.519408 0.75981,0.455882 1.44686,1.265102 2.15949,1.799579 0.68015,0.510111 1.53803,0.818195 2.1595,1.439661 0.73406,0.734058 1.89323,2.174209 2.15949,3.239239 0.0582,0.23278 -0.10731,0.505219 0,0.719833 0.15175,0.303506 0.56808,0.416322 0.71983,0.719831 0.10731,0.214611 -0.0891,0.497049 0,0.71983 0.16065,0.401627 0.54944,0.682157 0.71983,1.079746 0.37494,0.874856 0.70994,5.068488 0.35992,6.118564 -0.3301,0.990309 -2.37059,2.358133 -3.23924,2.879325 -0.96546,0.579274 -0.59785,0.204804 -1.79958,0.719831 -0.9863,0.422698 -1.87459,1.062884 -2.87932,1.439662 -3.28082,1.230304 -8.38301,1.079746 -11.87722,1.079746 -1.63059,0 -3.42626,0.230364 -5.03881,0 -1.714,-0.244856 -3.3159,-1.193531 -5.03882,-1.439662 -0.47507,-0.06787 -0.9663,0.07889 -1.43966,0 -0.26462,-0.0441 -0.45364,-0.326641 -0.71983,-0.359915 -0.71428,-0.08928 -1.44262,0.06517 -2.1595,0 -2.16686,-0.196988 -4.32825,-0.810969 -6.47848,-1.079746 -0.47618,-0.05952 -0.9712,0.104103 -1.43966,0 -0.63068,-0.140153 -1.18075,-0.534186 -1.79958,-0.719831 -0.85827,-0.882142 -1.94929,-0.09419 -2.87932,-0.359915 -0.51589,-0.147397 -0.91591,-0.603443 -1.43966,-0.719834 -0.58558,-0.130127 -1.21763,0.145489 -1.79958,0 -0.41965,-0.10491 -0.71983,-0.479885 -1.07975,-0.71983 -0.47988,0 -0.96348,0.05952 -1.43966,0 -0.92874,0.372192 -1.41546,-0.571024 -2.15949,-0.719831 -0.58821,-0.117642 -1.21137,0.117642 -1.79958,0 -0.37202,-0.0744 -0.7232,-0.489566 -1.07975,-0.359915 -1.06367,0.386789 -1.919545,1.199718 -2.879318,1.799576 z"
       id="path6" />
    <path
       style="fill:#24221c;stroke-width:0.264583"
       d="m 92.138374,82.780573 c 0,0.479885 -0.479885,1.439661 0,1.439661 0.479888,0 -0.178225,-1.885228 0,-1.439661 0.410793,1.026975 0.502913,2.154631 0.719834,3.239238 0.02352,0.117642 -0.08483,0.275082 0,0.359915 0.08483,0.08483 0.275082,-0.08483 0.359915,0 0.603496,0.603499 0.495742,1.127313 0.719831,1.79958 0.420052,1.260154 2.759694,3.311633 3.599153,4.318984 3.336433,4.003714 -3.268482,-3.352165 1.439664,3.239241 0.220512,0.308718 0.776238,0.132286 1.079749,0.359915 0.21461,0.160959 0.17022,0.53014 0.35991,0.719831 0.30587,0.305869 0.77388,0.413961 1.07975,0.71983 0.18969,0.189693 0.19895,0.50522 0.35991,0.719834 0.79874,1.064982 2.01531,1.871299 2.87933,2.879319 0.39038,0.45545 0.65558,1.0155 1.07975,1.43966 0.68394,0.68395 1.71461,0.90314 2.5194,1.43967 1.06299,0.70865 1.73095,1.5853 2.87933,2.15949 0.29481,0.14741 1.16474,-0.055 1.43966,0 0.86856,0.17371 2.28117,0.67927 3.23924,0.35992 0.31568,-0.10523 1.96792,-0.88818 2.15949,-1.07975 0.1897,-0.18969 0.13671,-0.57102 0.35992,-0.71983 0.19964,-0.1331 0.50522,0.1073 0.71983,0 1.29443,-0.64722 0.26378,-0.6237 1.07975,-1.43966 0.63836,-0.63836 1.79515,-0.53656 2.51941,-1.07975 0.40719,-0.3054 0.65623,-0.7974 1.07974,-1.07975 1.9503,-1.300191 3.8735,-2.545203 5.75865,-3.959068 0.86065,-0.645485 1.6235,-1.562222 2.51941,-2.159492 0.66637,-0.444249 1.1584,-0.238945 1.79958,-0.719831 0.42328,-0.317465 0.93299,-1.186325 1.43966,-1.439661 0.30781,-0.153906 0.77194,-0.206013 1.07975,-0.359918 1.49788,-0.74894 -0.38477,0.02484 0.35991,-0.719831 0.20337,-0.203364 1.17155,-0.451718 1.43966,-0.719831 0.47272,-0.472712 -0.61992,-4.479075 0.35992,-2.519407 0.10731,0.214611 -0.10731,0.505219 0,0.719831 0.44379,0.887576 0.63596,1.991746 1.07974,2.879322 0.10731,0.214615 -0.16966,0.550167 0,0.719834 0.0848,0.08483 0.27509,-0.08483 0.35992,0 0.2545,0.254497 -0.11381,0.738298 0,1.079746 0.0848,0.254497 0.635,0.105415 0.71983,0.359915 0.11382,0.341445 -0.0873,0.730576 0,1.079746 0.0823,0.3292 0.61253,0.397912 0.71983,0.719831 0.11382,0.341447 -0.16096,0.757827 0,1.079746 0.25982,0.519644 0.46001,0.92002 0.71983,1.439664 0.10731,0.214612 -0.13309,0.520184 0,0.719831 0.56304,0.844553 1.08938,1.468543 1.43967,2.519403 0.10778,0.32337 -0.0829,0.74824 0,1.07975 0.26792,1.07171 0.92375,2.1473 1.07974,3.23924 0.22702,1.58914 0.1797,3.05695 0.35992,4.6789 0.69146,6.22316 0.0443,-3.78683 0.71983,4.31899 0.0897,1.07602 -0.1527,2.17035 0,3.23924 0.0536,0.37557 0.30626,0.70417 0.35992,1.07975 0.22839,1.59875 0.22839,4.15989 0,5.75865 -0.30521,2.13646 -1.48915,4.1075 -2.1595,6.11856 -0.97681,2.93042 -0.21483,2.29898 -0.71983,4.31899 -0.10491,0.41964 -0.55918,0.67811 -0.71983,1.07974 -0.2818,0.7045 -0.59509,1.41105 -0.71983,2.15949 -0.0592,0.35502 0.13367,0.74558 0,1.07975 -0.12603,0.31506 -0.59381,0.40477 -0.71983,0.71983 -0.11997,0.29993 0.08,1.39967 0,1.79958 -0.24129,1.20644 -0.54341,2.36417 -0.71983,3.59916 -0.0509,0.35629 0.0873,0.73057 0,1.07974 -0.0412,0.1646 -0.31877,0.19532 -0.35992,0.35992 -0.0873,0.34917 0.0592,0.72473 0,1.07974 -0.2321,1.3926 -1.21053,2.58429 -1.43966,3.95907 -0.24362,1.46171 -0.53889,3.19154 -1.07975,4.67891 -0.27503,0.75634 -0.84849,1.38864 -1.07974,2.15949 -0.1379,0.45965 0.0595,0.96348 0,1.43966 -0.23289,1.86307 -1.04995,3.645 -1.43967,5.39873 0,2.73568 0.21462,0.43592 -0.35991,2.1595 -0.10591,0.31771 0,1.16194 0,1.43966 0,2.12769 -0.15946,2.83832 -1.07975,4.6789 -0.10865,0.21731 0.16638,0.91337 0,1.07975 -0.0848,0.0848 -0.27508,-0.0848 -0.35991,0 -0.0848,0.0848 0.1073,0.30626 0,0.35991 -0.21462,0.10731 -0.50522,-0.1073 -0.71984,0 -0.1073,0.0537 0.0848,0.27509 0,0.35992 -0.11381,0.11381 -8.98638,0.17804 -10.07763,0.35991 -2.17293,0.36216 -4.18746,0.0381 -6.11856,0.35992 -0.37423,0.0624 -0.70553,0.29754 -1.07975,0.35991 -1.27648,0.21275 -2.66962,-0.11722 -3.95907,0 -2.17877,0.19808 -4.62979,0.72802 -6.8384,0.35992 -0.71983,-0.11997 -1.48192,-0.0889 -2.15949,-0.35992 -0.40162,-0.16065 -0.66938,-0.58304 -1.07975,-0.71983 -0.34144,-0.11381 -0.72472,0.0592 -1.07974,0 -2.177799,-0.36296 -4.334896,-1.3049 -6.478481,-1.79957 -7.922946,-1.82837 1.772292,0.80299 -4.318987,-0.71983 -0.544613,-0.13616 -1.254967,-0.58368 -1.79958,-0.71983 -0.232777,-0.0582 -0.492199,0.0759 -0.71983,0 -0.569077,-0.1897 -0.925285,-0.77113 -1.439662,-1.07975 -2.268783,-1.36127 1.149842,1.04982 -1.799577,-0.71983 -0.290975,-0.17459 -0.428857,-0.54525 -0.71983,-0.71983 -0.325321,-0.1952 -0.76408,-0.14948 -1.079749,-0.35992 -0.423511,-0.28234 -0.688724,-0.75389 -1.079746,-1.07975 -1.868403,-1.557 -3.511492,-2.25641 -4.318987,-4.6789 -0.938906,-2.81672 1.443868,-6.93783 2.51941,-9.3578 0.79434,-1.78727 0.672288,-3.60819 1.439662,-5.39874 0.170397,-0.39758 0.567946,-0.67472 0.71983,-1.07974 0.214797,-0.57279 0.198956,-1.2094 0.359916,-1.79958 0.36948,-1.35475 1.188466,-2.57748 1.439664,-3.95907 0.128767,-0.70822 -0.07163,-1.44323 0,-2.15949 0.217209,-2.1721 1.326927,-4.35156 1.799576,-6.47848 0.158309,-0.71239 0.15022,-1.46051 0.359916,-2.1595 0.15417,-0.5139 0.531442,-0.93729 0.719831,-1.43966 0.347371,-0.92632 0.33012,-1.97 0.71983,-2.87932 0.170397,-0.39759 0.614921,-0.6601 0.719831,-1.07975 0.145489,-0.58195 -0.0744,-1.20435 0,-1.79957 0.149339,-1.19471 0.861102,-2.39662 1.079749,-3.59916 0.464277,-2.55353 0.465391,-5.10081 1.079746,-7.55823 0.311618,-1.24647 -0.252402,-2.69706 0,-3.95907 0.05261,-0.26305 0.307303,-0.45677 0.359915,-0.71983 0.480661,-2.4033 -0.593452,-5.18441 0,-7.55823 0.06506,-0.26025 0.307303,-0.45677 0.359915,-0.71983 0.141171,-0.70585 -0.141171,-1.453636 0,-2.159489 0.05261,-0.263056 0.315812,-0.455215 0.359916,-0.71983 0,-2.466264 -0.151755,-0.472734 0.359915,-2.51941 0.376616,-1.506461 -0.495475,-3.552394 0,-5.038818 0.05365,-0.160959 0.284038,-0.208161 0.359915,-0.359915 0.379569,-0.759135 0.248717,-1.812735 0.719831,-2.519408 0.06655,-0.09982 0.275085,0.08483 0.359915,0 0.406464,-0.406463 0.05385,-4.661884 0,-5.038817 z"
       id="path7" />
    <path
       style="fill:#c8ab37;stroke-width:0.264583"
       d="m 85.659896,199.75312 c 0.479888,0.11997 1.319691,0.8398 1.439661,0.35991 0.119973,-0.47988 -1.919549,-0.47988 -1.439661,-0.35991 0.959776,0.23994 1.953,0.37246 2.879325,0.71983 0.224666,0.0842 -0.214614,0.61252 0,0.71983 0.214611,0.10731 0.505219,-0.10731 0.719831,0 0.107304,0.0537 -0.08483,0.27508 0,0.35992 0.08483,0.0848 0.275082,-0.0848 0.359915,0 0.179956,0.17996 0.179956,0.53987 0.359915,0.71983 0.121923,0.12192 3.333404,0.67275 3.959072,0.35991 0.774094,-0.38704 -0.05427,-0.33278 0.719831,-0.71983 0.107304,-0.0537 0.306263,0.10731 0.359915,0 0.447302,-0.8946 -0.08069,-2.35803 0.359915,-3.23924 0.05365,-0.1073 0.239943,0 0.359916,0 1.16958,0 0.280135,0.28014 1.079746,1.07975 0.08483,0.0848 0.275082,-0.0848 0.359915,0 0.484685,0.48468 0.403611,1.93066 0.719831,2.87932 0.101179,0.30354 -0.142111,0.79553 0,1.07975 0.07588,0.15175 0.284041,0.20816 0.359918,0.35991 0.107304,0.21462 -0.169667,0.55017 0,0.71984 0.08483,0.0848 0.30626,-0.10731 0.359915,0 0.129559,0.25911 0.108154,2.30309 0,2.5194 -0.378997,0.758 -2.944042,0.35992 -3.599156,0.35992 -1.080638,0 -2.92358,0.34516 -3.959072,0 -0.160959,-0.0536 -0.198956,-0.30626 -0.359915,-0.35992 -0.227629,-0.0759 -0.505219,0.10731 -0.719831,0 -0.107307,-0.0537 0.08483,-0.27508 0,-0.35991 -0.119972,-0.11997 -0.959776,-0.23994 -1.079746,-0.35992 -0.08483,-0.0848 0.08483,-0.27508 0,-0.35991 -0.02233,-1.01343 -0.811482,-0.0916 -1.079746,-0.35992 -0.189693,-0.18969 -0.170225,-0.53014 -0.359918,-0.71983 -0.150817,-0.15082 -0.861615,-0.25085 -1.079746,-0.35991 -0.02016,-0.0101 -1.401892,-1.72404 -1.439661,-1.79958 -0.494657,-0.98931 0.415965,-2.17571 0.719831,-3.23924 z"
       id="path8" />
    <path
       style="fill:#c8ab37;stroke-width:0.264583"
       d="m 133.52866,199.75312 c -0.0207,0.14762 -0.73476,5.74372 -0.35991,6.11856 0.75696,0.75697 6.01146,0.61273 6.11856,0.71983 0.0848,0.0848 -0.0848,0.27509 0,0.35992 0.34033,0.34033 3.7467,1.29212 3.95907,1.07975 0.0848,-0.0848 -0.0848,-0.27509 0,-0.35992 0.87417,-0.87416 0.52851,0.10703 1.07975,-0.71983 0.98501,-1.47753 2.18842,-3.45451 1.79958,-5.39873 -0.1261,-0.6305 -0.9559,-1.31581 -1.43967,-1.79958 -0.0468,-0.0468 -0.69644,-1.05636 -0.71983,-1.07975 -0.18969,-0.18969 -0.53014,-0.17022 -0.71983,-0.35991 -0.0848,-0.0848 0.10731,-0.30626 0,-0.35992 -0.21461,-0.1073 -0.4922,0.0759 -0.71983,0 -1.12341,-0.37447 0.11997,-0.23994 -0.35992,-0.71983 -0.0848,-0.0848 -0.27508,0.0848 -0.35991,0 -0.16967,-0.16966 0.21461,-0.61252 0,-0.71983 -0.21461,-0.10731 -0.4922,0.0759 -0.71983,0 -0.41343,-0.13781 -0.49936,-0.85927 -0.71983,-1.07975 -0.513,-0.513 0,2.07044 0,2.15949 0,1.91955 -0.11997,-1.07974 0.35991,0.35992 0.10129,0.30385 -0.2569,2.26251 0,2.51941 0.17996,0.17996 0.53987,0.17996 0.71983,0.35992 0.12682,0.12681 0.0519,1.74766 0,1.79957 -0.0848,0.0848 -0.25261,-0.0537 -0.35991,0 -0.30351,0.15176 -0.41633,0.56808 -0.71983,0.71983 -0.5382,0.2691 -2.19882,-0.0393 -2.51941,-0.35991 -0.47989,-0.47989 0.76349,-0.34536 -0.35992,-0.71983 -0.34144,-0.11382 -0.82525,0.2545 -1.07974,0 -0.1897,-0.1897 -0.23995,-0.47989 -0.35992,-0.71983 -0.8398,-0.59986 -1.67961,-1.19972 -2.51941,-1.79958 z"
       id="path9" />
    <path
       style="fill:#666666;stroke-width:0.264583"
       d="m 98.976771,62.265387 c -1.35968,5.438722 1.599619,-6.398498 -0.71983,2.879323 -0.670312,2.681245 -1.711256,6.747864 1.799579,7.918143 1.24689,0.415631 2.16112,0.539057 3.23924,0 0.1073,-0.05366 0.29336,0.09982 0.35991,0 0.71049,-1.065734 0.009,-1.093758 0.71983,-2.159495 0.0665,-0.09982 0.29337,0.09983 0.35992,0 0.46744,-0.701167 0.42301,-1.925762 0.71983,-2.519407 0.0759,-0.151755 0.32664,-0.193546 0.35992,-0.359916 0.11468,-0.573452 0.36086,-3.957182 0,-4.678902 -0.54295,-1.085881 -1.44372,-0.842502 -1.79958,-1.079746 -1.88809,-1.888085 0.32561,-0.01373 -1.43967,-0.71983 -2.40186,-0.960748 0.4526,-1.595459 -3.599149,0.71983 z"
       id="path10" />
    <path
       style="fill:#666666;stroke-width:0.264583"
       d="m 136.40799,68.743866 c -0.47989,0.479888 -1.91955,0.959774 -1.43967,1.439662 0.47989,0.479888 1.60427,-2.098062 1.43967,-1.439662 -0.27451,1.098018 -1.24992,1.889943 -1.79958,2.879326 -1.04361,1.878488 1.22042,8.133267 3.23924,8.637971 0.46727,0.116818 1.30039,-0.166394 1.79957,0 0.53945,0.179816 1.51974,0.679794 2.1595,0.359915 0.1073,-0.05365 -0.0848,-0.275082 0,-0.359915 0.0848,-0.08483 0.27508,0.08483 0.35991,0 0.18969,-0.189693 0.17023,-0.530138 0.35992,-0.719831 0.74468,-0.744678 -0.0291,1.137968 0.71983,-0.359915 0.6225,-1.24501 1.20488,-6.462991 0.71983,-7.918143 -0.27484,-0.824519 -1.72301,-2.481125 -2.51941,-2.879323 -0.50985,-0.254926 -1.27826,-0.186142 -1.79958,-0.359916 -0.16095,-0.05365 -0.20816,-0.284038 -0.35991,-0.359915 -0.10731,-0.05365 -0.27508,0.08483 -0.35992,0 -0.0848,-0.08483 0.11028,-0.407175 0,-0.359915 -0.88903,0.381016 -1.6796,0.959773 -2.5194,1.439661 z"
       id="path11" />
    <path
       style="fill:#333333;stroke-width:0.264583"
       d="m 79.901247,51.827837 c 1.572551,0.415917 3.102544,0.81702 4.678902,1.079746 0.710036,0.11834 1.461154,-0.174585 2.159493,0 0.171225,0.04281 0.908523,0.677024 1.079748,0.719831 0.828651,0.207163 1.66478,0.292518 2.519408,0.71983 0.387048,0.193524 1.260872,0.945071 1.799576,1.079746 1.036987,0.259247 0.99408,-0.222789 2.159495,0.359918 2.645103,1.322552 -0.856969,0.194231 2.879323,1.439662 0.285097,0.09503 2.670511,0.255508 2.879328,0.359915 0.3035,0.151754 0.42521,0.551476 0.71983,0.719831 1.7769,1.01537 3.84819,1.226441 5.75865,1.799576 1.05668,0.317006 2.16684,1.171565 3.23924,1.439665 2.5565,0.639124 5.30193,0.879043 7.91814,1.439661 2.56295,0.549203 5.0417,1.473168 7.55823,2.159492 1.85009,0.504574 3.90205,0.70843 5.75864,1.079746 1.9863,0.397261 0.17819,0.377383 2.51941,1.079749 0.69899,0.209695 1.44842,0.195821 2.1595,0.359915 2.98093,0.687906 1.92368,0.652457 4.6789,1.439662 2.02757,0.579305 4.08076,0.930211 6.11856,1.439661 2.75509,0.688771 5.50692,1.543685 8.27806,2.159495 0.7526,0.167243 1.75597,-0.109064 2.51941,0 1.8906,0.270084 3.81175,0.603276 5.75865,0.359915 1.1959,-0.14949 2.13981,-0.713274 3.23923,-1.079746 0.46928,-0.156424 0.99723,-0.1387 1.43967,-0.359915 0.3035,-0.151755 0.41632,-0.568079 0.71983,-0.719834 0.21461,-0.107304 0.47989,0 0.71983,0 0.35991,-0.11997 0.74041,-0.190248 1.07975,-0.359915 0.64065,-0.320326 2.50567,-1.052277 2.87932,-1.799577 0.16966,-0.339331 0.13228,-0.77624 0.35992,-1.079746 0.16096,-0.214611 0.53013,-0.170225 0.71983,-0.359915 0.14653,-0.146532 0.60463,-1.209268 0.71983,-1.439664 0.61263,-1.225259 -0.6797,-2.839186 -1.43966,-3.599154 -0.64034,-0.640334 -2.09483,-0.916662 -2.87933,-1.439664 -0.96261,-0.641744 -1.19688,-1.157832 -2.15949,-1.799577 -1.88722,-1.258144 -5.1644,-1.419889 -7.19831,-2.159492 -0.40652,-0.147828 -0.69285,-0.526383 -1.07975,-0.71983 -1.1044,-0.552202 -2.13484,-0.167632 -3.23924,-0.719834 -1.93695,-0.968475 -6.82528,-2.928866 -8.99789,-3.239238 -0.47506,-0.06787 -0.9741,0.11639 -1.43966,0 -0.75039,-0.187597 -4.12616,-1.097417 -5.03882,-1.439661 -0.40502,-0.151884 -0.68215,-0.549437 -1.07974,-0.719834 -0.90932,-0.389707 -1.95301,-0.372459 -2.87933,-0.71983 -2.36434,-0.886627 -0.69021,-0.93676 -3.95907,-1.439662 -0.71146,-0.109455 -1.45364,0.141171 -2.15949,0 -1.52937,-0.305874 -3.50112,-1.740122 -5.03882,-2.159492 -0.81844,-0.22321 -1.68755,-0.193545 -2.51941,-0.359915 -3.45768,-0.691536 -6.96318,-1.148136 -10.43755,-1.79958 -6.94959,-1.303049 -13.839507,-1.768625 -20.8751,-2.159492 -3.25361,-0.180758 -6.822313,-0.232523 -10.077633,0 -1.597308,0.114094 -3.946477,0.353619 -5.398732,1.079746 -0.356527,0.178263 -2.403303,0.847535 -2.519411,1.079746 -1.264422,2.528848 -1.690343,4.271839 1.079746,6.118564 0.572249,0.3815 0.102765,0.771213 0.719831,1.079749 2.265662,1.132829 4.040944,0.990666 6.478482,0.71983 0.72118,-0.08013 1.231077,0.208582 1.799576,-0.359915"
       id="path12" />
    <path
       style="fill:#000000;stroke-width:0.264583"
       d="m 105.45525,55.786908 c 0,-0.479888 0.47989,-1.439664 0,-1.439664 -0.47989,0 0,1.91955 0,1.439664 0,-1.079748 -0.0978,-2.163929 0,-3.23924 0.0359,-0.395137 0.97318,-2.093154 1.07975,-2.519411 0.0302,-0.120676 0.2479,-1.991471 0.35991,-2.159492 0.37646,-0.564681 1.0452,-0.88741 1.43966,-1.439661 0.49799,-0.69718 0.98811,-2.126721 1.43967,-2.879326 0.60119,-1.001995 1.74453,-1.744532 2.5194,-2.519407 0.37939,-0.379386 0.34045,-1.060278 0.71984,-1.439664 0.87416,-0.874162 0.5285,0.107029 1.07974,-0.719831 0.14881,-0.22321 0.12988,-0.581808 0.35992,-0.71983 0.42416,-0.254498 1.0155,-0.105416 1.43966,-0.359916 0.23003,-0.13802 0.1453,-0.558871 0.35992,-0.71983 0.3035,-0.227632 0.74041,-0.190249 1.07974,-0.359916 0.7738,-0.386897 1.48394,-0.899221 2.1595,-1.439661 0.62635,-0.501081 1.45106,-1.445363 2.15949,-1.79958 2.37222,-1.186111 6.38656,-1.590272 8.99789,-0.71983 0.18032,0.06011 1.37509,0.655261 1.43966,0.71983 0.0848,0.08483 -0.0848,0.275085 0,0.359916 0.62312,0.623123 1.61724,0.626282 2.15949,1.439664 0.47266,0.708983 1.44213,1.444582 1.79958,2.159492 0.22122,0.442433 0.17621,0.980384 0.35992,1.439661 0.61535,1.538388 0.0391,-0.121351 1.07974,1.439664 1.22859,1.842879 1.43966,6.094632 1.43966,8.278056 0,0.68289 0.17107,1.835139 0,2.51941 -0.13012,0.52051 -0.6146,0.913551 -0.71983,1.439662 -0.0941,0.470566 0.33933,1.10033 0,1.439661 -0.0848,0.08483 -0.27508,-0.08483 -0.35991,0 -0.28727,0.287271 0.1888,1.421977 0,1.799579 -0.32126,0.642512 -1.0384,3.557807 -1.07975,3.599154 -0.0848,0.08483 -0.27508,-0.08483 -0.35991,0 -0.47925,0.479245 0.47924,0.240585 0,0.71983 -0.063,0.06304 -4.35332,0 -4.67891,0 -0.80772,0 -2.22189,0.328719 -2.87932,0 -0.15175,-0.07588 -0.19532,-0.318764 -0.35992,-0.359915 -0.34916,-0.08729 -0.73057,0.08729 -1.07974,0 -0.17123,-0.0428 -0.90852,-0.677024 -1.07975,-0.719831 -0.89033,-0.222583 -2.01198,0.289116 -2.87932,0 -1.14877,-0.382923 -2.07984,-1.14981 -3.23924,-1.439661 -0.33875,-0.08469 -0.74101,0.08468 -1.07975,0 -0.52051,-0.130127 -0.91915,-0.589703 -1.43966,-0.719831 -0.46556,-0.11639 -0.9844,0.151752 -1.43966,0 -2.05736,-0.685786 2.1758,-0.06872 -1.07975,-0.71983 -0.58821,-0.117645 -1.21763,0.145486 -1.79958,0 -0.52051,-0.13013 -0.91915,-0.589704 -1.43966,-0.719834 -0.34917,-0.08729 -0.7383,0.113816 -1.07975,0 -0.41036,-0.136787 -0.66938,-0.583041 -1.07974,-0.71983 -1.33452,-0.444839 -3.42713,0.697523 -4.31899,1.079748 z"
       id="path13" />
  </g>
</svg>
