<?xml version="1.0" encoding="UTF-8" standalone="no"?>
<!-- Created with Inkscape (http://www.inkscape.org/) -->

<svg
   width="256mm"
   height="256mm"
   viewBox="0 0 256 256"
   version="1.1"
   id="svg1"
   inkscape:version="1.4.2 (f4327f4, 2025-05-13)"
   sodipodi:docname="NPC.svg"
   xmlns:inkscape="http://www.inkscape.org/namespaces/inkscape"
   xmlns:sodipodi="http://sodipodi.sourceforge.net/DTD/sodipodi-0.dtd"
   xmlns="http://www.w3.org/2000/svg"
   xmlns:svg="http://www.w3.org/2000/svg">
  <sodipodi:namedview
     id="namedview1"
     pagecolor="#ffffff"
     bordercolor="#000000"
     borderopacity="0.25"
     inkscape:showpageshadow="2"
     inkscape:pageopacity="0.0"
     inkscape:pagecheckerboard="0"
     inkscape:deskcolor="#d1d1d1"
     inkscape:document-units="mm"
     showgrid="true"
     inkscape:zoom="0.73512619"
     inkscape:cx="323.75394"
     inkscape:cy="527.12039"
     inkscape:window-width="2515"
     inkscape:window-height="1211"
     inkscape:window-x="142"
     inkscape:window-y="82"
     inkscape:window-maximized="0"
     inkscape:current-layer="layer1">
    <inkscape:grid
       id="grid1"
       units="mm"
       originx="0"
       originy="0"
       spacingx="255.99999"
       spacingy="255.99999"
       empcolor="#0099e5"
       empopacity="0.30196078"
       color="#0099e5"
       opacity="0.14901961"
       empspacing="5"
       enabled="true"
       visible="true" />
  </sodipodi:namedview>
  <defs
     id="defs1" />
  <g
     inkscape:label="Layer 1"
     inkscape:groupmode="layer"
     id="layer1">
    <path
       style="fill:#536c5d;stroke-width:0.264583"
       d="m 128.12993,141.4468 c -3.26656,-2.60717 -6.76673,-6.11259 -11.15738,-6.47848 -0.8369,-0.0697 -1.68698,0.11099 -2.51941,0 -0.98064,-0.13075 -1.89995,-0.57992 -2.87933,-0.71983 -0.83136,-0.11876 -1.76826,0.37557 -2.5194,0 -1.08778,-0.54388 -2.9897,-0.50761 -4.31899,-0.35991 -0.93687,-0.41657 -1.41105,0.59509 -2.1595,0.71983 -1.48416,0.24736 -4.235429,0.25387 -5.758643,0 -0.641641,-0.10694 -2.13259,-0.73329 -2.879323,-0.35992 -0.354174,0.17709 -3.449423,4.05696 -3.599156,4.31899 -1.17061,2.04856 0.323011,0.23531 -0.719831,1.79958 -0.849831,1.27474 -2.39322,2.50075 -2.879325,3.95907 -0.07588,0.22763 0.05819,0.48705 0,0.71983 -0.238517,0.95407 -0.832456,0.94949 -1.439662,1.79958 -0.311851,0.43659 -0.397912,1.01043 -0.719831,1.43966 0.305049,1.84739 -1.597286,1.04997 -2.159492,1.79957 -0.227631,0.30351 -0.171688,0.75036 -0.359918,1.07975 -1.0453,1.82928 -2.710158,3.28241 -3.239238,5.39874 -0.156064,0.62425 0.05718,2.00478 0,2.5194 -0.57468,5.17213 -0.41633,10.3014 0.359916,15.47637 0.181491,1.20994 0.538339,2.38922 0.71983,3.59916 0.428329,2.85551 0.200663,3.52271 0.719831,6.11856 0.150847,0.75423 0.56002,1.35907 0.359915,2.15949 -0.662926,2.65171 -2.013484,5.10672 -3.239238,7.55823 -0.53041,1.06082 -0.300318,2.12054 -0.71983,3.23924 -0.442368,1.17964 -1.97217,4.7873 -1.439665,6.11856 0.888619,2.22155 1.804623,2.85303 3.239241,4.67891 3.51449,4.47298 7.636322,9.42153 12.956958,11.87721 7.115432,3.28404 15.327951,3.95907 23.034591,3.95907 4.56159,0 8.86367,-0.4854 13.31688,-1.43966 0.71356,-0.15291 1.48193,-0.0889 2.15949,-0.35992 7.97634,-3.19053 14.21179,-9.16386 21.59493,-13.31687 3.31768,-1.8662 1.56887,-0.38593 4.67891,-1.79958 2.48567,-1.12985 4.67736,-2.82465 7.19831,-3.95907 3.10224,-1.39601 7.8954,-2.12918 10.07763,-5.03882 2.08092,-2.77456 3.15228,-6.36615 3.59915,-9.71772 1.67246,-12.54338 -5.2737,-16.46479 -14.75653,-21.95485 -1.21082,-0.70099 -2.34776,-1.53379 -3.59916,-2.15949 -1.71809,-0.85905 -6.01387,-2.4113 -7.91814,-3.23924 -1.57528,-0.68491 -3.08402,-1.52154 -4.6789,-2.15949 -1.409,-0.5636 -2.90463,-0.88964 -4.31899,-1.43966 -3.7895,-1.4737 -0.70062,-0.50319 -3.59915,-2.1595 -0.3294,-0.18822 -0.76408,-0.14947 -1.07975,-0.35991 -0.0998,-0.0666 0.0537,-0.25261 0,-0.35992 -0.26787,-0.53574 -1.1197,-0.95972 -1.43966,-1.43966 -0.74403,-1.11605 -1.14817,-2.42663 -1.79958,-3.59916 -1.92136,-3.45845 -2.76229,-5.35157 -6.11856,-7.91814 -2.43644,-1.86316 -1.80524,-1.79958 -3.23924,-1.79958"
       id="path1" />
    <path
       style="fill:#aa4400;stroke-width:0.264583"
       d="m 86.739642,136.40799 c 1.624216,0.49627 2.632114,1.99468 3.959071,2.87932 1.605553,1.07037 7.040642,2.3563 8.997889,2.51941 1.673808,0.13948 3.376088,-0.23753 5.038818,0 2.41275,0.34468 4.91448,1.39821 7.19831,2.15949 2.61573,0.87191 5.56567,1.34752 8.27806,1.79958 1.23932,0.20655 4.30045,0.24406 5.39873,0 1.21187,-0.26931 2.02736,-0.81044 3.23924,-1.07975 2.03284,-0.45174 4.06688,-0.7378 6.11856,-1.07974 1.09104,-0.18184 2.13992,-0.59769 3.23924,-0.71983 2.26709,-0.2519 5.92329,0.0306 7.19831,-2.51941 0.22122,-0.44244 0.18623,-0.97651 0.35992,-1.43967 0.56204,-1.49877 1.56487,-2.83243 2.15949,-4.31898 1.22494,-3.06235 1.70543,-10.4736 0.71983,-13.67679 -1.73759,-5.64719 -10.3703,-12.08626 -15.11645,-15.47637 -4.14189,-2.95849 1.84626,1.28154 -3.23924,-2.87933 -1.59861,-1.30795 -3.55743,-2.31858 -5.39873,-3.239233 -0.47989,-0.239946 -0.91355,-0.614609 -1.43966,-0.719831 -8.31154,-1.662308 -17.46546,2.881444 -25.554007,4.678904 -3.884904,0.86331 -8.238599,4.58025 -9.717717,8.27805 -0.275233,0.68808 -0.08469,1.83134 -0.359916,2.51941 -0.847526,2.11882 -2.865519,5.01121 -3.959071,7.19831 -0.998524,1.99705 -0.359916,5.36782 -0.359916,7.55823 0,0.63163 -0.287551,4.24757 0,4.6789 0.148807,0.22321 0.530138,0.17023 0.719831,0.35992 0.08483,0.0848 0,0.23994 0,0.35991 0.839804,0.71983 1.737289,1.37737 2.519408,2.1595 1.021524,1.02152 2.233258,1.9471 2.879325,3.23923 0.248227,0.49646 -0.435877,0.32194 0.359915,0.71984 0.214612,0.1073 0.479888,0 0.719831,0"
       id="path2" />
    <path
       style="fill:#000000;stroke-width:0.264583"
       d="m 69.103782,98.976771 c 0.239942,0.479886 0.239942,1.679609 0.71983,1.439659 0.479888,-0.23994 -1.185669,-1.705853 -0.71983,-1.439659 1.25431,0.716749 2.129427,1.954479 3.23924,2.879319 3.397981,2.83166 -1.08699,-1.08457 2.159492,1.07975 0.423511,0.28234 0.634805,0.83256 1.079746,1.07975 1.760927,0.97829 7.230211,2.59649 8.997889,2.87932 3.689575,0.59033 7.451601,0.60158 11.157382,1.07975 4.207671,0.54293 8.405819,1.02054 12.597039,1.43966 3.51996,0.352 7.26338,0 10.79747,0 2.85026,0 5.79601,0.21861 8.63797,0 3.04762,-0.23443 5.91482,-0.97675 8.99789,-0.71983 0.72724,0.0606 1.43225,0.29931 2.15949,0.35992 0.71735,0.0598 1.44804,-0.10946 2.1595,0 2.14404,0.32985 2.44565,0.81521 4.31898,1.43966 0.69191,0.23063 1.82618,0.37321 2.51941,0.71983 0.3869,0.19345 0.66938,0.58304 1.07975,0.71983 1.92244,0.64081 6.04707,-0.47036 7.91814,-0.71983 1.43198,-0.19093 2.89399,-0.12242 4.31899,-0.35992 3.06655,-0.51109 -2.4414,-0.013 1.79958,-0.71983 1.22641,-0.2044 5.3653,-0.66969 6.11856,-1.79958 0.29761,-0.44642 0.34045,-1.06027 0.71983,-1.43966 0.18969,-0.18969 0.57102,-0.1367 0.71983,-0.35991 0.33274,-0.49912 0,-1.19972 0,-1.79958 0,-3.10995 -1.80188,-4.08084 -3.95907,-5.758649 -0.73963,-0.57527 -1.36897,-1.296521 -2.15949,-1.799579 -0.54507,-0.346858 -1.23482,-0.406072 -1.79958,-0.719831 -1.19575,-0.664305 -1.99725,-1.946182 -3.23924,-2.519407 -1.69104,-0.780481 -3.57761,-1.049422 -5.39873,-1.439664 -0.8295,-0.17775 -1.7086,-0.110432 -2.51941,-0.359916 -1.64178,-0.505161 -3.07797,-1.536906 -4.6789,-2.159492 -3.63489,-1.413568 -7.39522,-2.914025 -11.15738,-3.959071 -7.30815,-2.03004 -15.17875,-2.019678 -22.67468,-2.519408 -0.84645,-0.05643 -1.67358,-0.294851 -2.51941,-0.359915 -3.81066,-0.293129 -7.71552,0.380177 -11.517299,0 -0.890788,-0.08908 -1.988536,-0.630753 -2.879325,-0.719831 -2.449031,-0.244903 -5.139052,0.09112 -7.558225,0.359916 -1.936549,0.215172 -3.870428,1.035042 -5.758648,1.439661 -1.658999,0.3555 -3.385611,0.33832 -5.038818,0.719831 -1.779262,0.410599 -3.845949,1.548918 -5.398733,2.519407 -5.986142,3.741338 0.958125,-0.479062 -2.879325,1.439664 -0.820537,0.410269 -1.325647,1.448597 -1.799577,2.159492 -0.188227,0.282343 -0.568079,0.416325 -0.719831,0.719831 -0.466746,0.93349 0.214093,2.724235 0.359916,3.599156 0.05917,0.355018 -0.160959,0.757828 0,1.079746 0.461539,0.923084 1.199718,1.679607 1.799577,2.51941 z"
       id="path3" />
    <path
       style="fill:#4d4d4d;stroke-width:0.264583"
       d="m 97.897023,98.256941 c -0.756383,-8.631052 0.632613,-17.423336 2.519407,-25.913919 0.6336,-2.851189 0.87701,-5.824722 1.43966,-8.637973 0.533,-2.664976 1.81597,-4.978916 2.51941,-7.558225 0.19202,-0.704049 0.12915,-1.467184 0.35992,-2.159495 0.78148,-2.344436 2.28718,-4.553445 3.23924,-6.838394 0.29183,-0.700403 0.3805,-1.480831 0.71983,-2.159495 0.26826,-0.53653 0.78213,-0.918837 1.07975,-1.439662 0.45331,-0.793294 0.64978,-1.713222 1.07974,-2.519407 0.44745,-0.838959 2.33869,-4.407821 3.23924,-5.758648 0.51976,-0.77964 1.31749,-1.356014 1.79958,-2.159495 0.87818,-1.463641 -0.28548,-0.794263 1.07975,-2.159492 0.77008,-0.770086 1.87834,-1.197898 2.51941,-2.159495 0.1488,-0.223208 0.17022,-0.530137 0.35991,-0.71983 2.36651,-2.366513 -0.18233,0.676621 2.15949,-1.079747 0.35277,-0.26457 0.22274,-0.914048 0.71984,-1.079746 0.80479,-0.268265 1.71461,-0.09165 2.51941,-0.359915 2.10427,-0.701425 6.2986,-3.554105 8.63797,-1.799578 2.43131,1.823483 1.64213,2.092105 2.15949,4.678901 0.34793,1.739648 0.88023,2.003015 1.07975,3.599156 0.10416,0.833318 -0.10417,1.686092 0,2.51941 0.83558,6.684679 0.80468,13.908939 -0.71983,20.515183 -0.36693,1.590006 -1.07274,3.088897 -1.43967,4.678902 -1.22339,5.301364 0.30854,0.359799 -0.71983,3.959072 -0.26358,0.922528 -0.9133,1.963904 -1.07974,2.879325 -0.25843,1.42135 -0.01,2.917468 -0.35992,4.318984 -0.15669,0.62678 -0.56314,1.1728 -0.71983,1.79958 -1.09923,4.396893 -1.24079,9.206433 -1.79958,13.676788 -0.0614,0.490837 -0.30529,0.948031 -0.35991,1.439664 -0.0662,0.596189 0.13012,1.214001 0,1.799577 -0.8808,3.963556 -0.71984,-0.573998 -0.71984,2.519407 0,1.028206 -1.47494,9.015526 -2.15949,9.357806 -0.54952,0.27476 -1.00718,-0.64727 -1.07974,-0.71983 -0.29993,-0.29993 -1.49965,0.29993 -1.79958,0 -0.0195,-0.0195 -0.70033,-1.060245 -0.71983,-1.079748 -0.88256,-0.882563 -2.32863,-0.264525 -3.23924,-0.719831 -0.15176,-0.07588 -0.20817,-0.28404 -0.35992,-0.359915 -0.85881,-0.429405 -5.13818,0 -6.47848,0 -0.95977,0 0.11997,0.11997 -0.35991,-0.359915 -0.16273,-0.16273 -5.51288,-0.359918 -6.47848,-0.359918 -0.68718,0 -5.69876,0.300029 -5.75865,0.359918 -0.0848,0.08483 0.0848,0.275082 0,0.359915 -0.68395,0.683943 -1.921803,-0.223128 -2.879327,-0.359915 z"
       id="path4" />
    <path
       style="fill:#000000;stroke-width:0.264583"
       d="m 93.218123,116.61263 c 6.41164,-0.37842 -6.336032,0.66402 2.879323,-0.35991 1.266116,-0.14068 2.681825,0 3.959074,0 1.18,0 6.84692,0.24562 7.55822,0.71983 0.18898,0.12598 -0.76761,2.36334 -1.07974,2.51941 -0.27968,0.13983 -3.45923,1.77625 -3.59916,1.79957 -1.5926,0.26544 -1.95164,0.17066 -3.599153,0.71983 -0.98003,0.32668 -2.584289,-0.12686 -3.599156,0 -0.274762,0.0344 -1.960531,0.63936 -2.519408,0.35992 -0.913741,-0.45687 -0.144259,-4.31608 0,-5.75865 z"
       id="path5" />
    <path
       style="fill:#000000;stroke-width:0.264583"
       d="m 122.7312,115.53289 c 0.33378,-0.32114 1.51766,0.23469 5.39873,0.71983 0.69227,0.0865 1.78301,-0.14728 2.51941,0 0.63352,0.1267 1.1623,0.61362 1.79957,0.71983 0.47336,0.0789 0.97824,-0.13184 1.43967,0 3.48215,0.9949 -1.16081,0.52636 2.15949,1.07974 0.35502,0.0592 0.73368,-0.0989 1.07975,0 1.32993,0.37998 2.55759,1.15937 3.95907,1.43967 0.16701,0.0334 1.98009,0.1794 1.79958,0.35991 -1.29991,1.2999 -2.99995,1.23993 -4.67891,1.79958 -4.26625,1.42208 -9.09857,2.73177 -13.67679,2.15949 -1.06829,0.1957 -1.90347,-0.55719 -2.87932,-0.71983 -0.35502,-0.0592 -0.73058,0.0873 -1.07975,0 -1.09608,-0.27402 -1.44074,-3.23708 -1.07974,-3.95907 0.22763,-0.45526 0.73924,-0.70141 1.07974,-1.07975 0.73993,-0.82214 1.43966,-1.6796 2.1595,-2.5194 z"
       id="path6" />
  </g>
</svg>
