<?xml version="1.0" encoding="UTF-8" standalone="no"?>
<!-- Created with Inkscape (http://www.inkscape.org/) -->

<svg
   width="512mm"
   height="512mm"
   viewBox="0 0 512 512"
   version="1.1"
   id="svg1"
   inkscape:version="1.4.2 (f4327f4, 2025-05-13)"
   sodipodi:docname="Trees.svg"
   xmlns:inkscape="http://www.inkscape.org/namespaces/inkscape"
   xmlns:sodipodi="http://sodipodi.sourceforge.net/DTD/sodipodi-0.dtd"
   xmlns="http://www.w3.org/2000/svg"
   xmlns:svg="http://www.w3.org/2000/svg">
  <sodipodi:namedview
     id="namedview1"
     pagecolor="#ffffff"
     bordercolor="#000000"
     borderopacity="0.25"
     inkscape:showpageshadow="2"
     inkscape:pageopacity="0.0"
     inkscape:pagecheckerboard="0"
     inkscape:deskcolor="#d1d1d1"
     inkscape:document-units="mm"
     showgrid="true"
     inkscape:zoom="0.36756309"
     inkscape:cx="316.95239"
     inkscape:cy="1010.7108"
     inkscape:window-width="1962"
     inkscape:window-height="1271"
     inkscape:window-x="79"
     inkscape:window-y="62"
     inkscape:window-maximized="0"
     inkscape:current-layer="layer1">
    <inkscape:grid
       id="grid1"
       units="mm"
       originx="0"
       originy="0"
       spacingx="255.99999"
       spacingy="255.99999"
       empcolor="#0099e5"
       empopacity="0.30196078"
       color="#0099e5"
       opacity="0.14901961"
       empspacing="5"
       enabled="true"
       visible="true" />
  </sodipodi:namedview>
  <defs
     id="defs1" />
  <g
     inkscape:label="Layer 1"
     inkscape:groupmode="layer"
     id="layer1">
    <path
       style="fill:#d40000;stroke-width:0.264583"
       d="m 89.978882,184.99659 c -3.008347,0.55381 -6.358618,-0.59984 -9.357805,0 -0.744032,0.1488 -1.40835,0.61252 -2.159492,0.71983 -4.25882,0.6084 -1.546013,-0.85991 -5.758648,0.71983 -1.004739,0.37677 -1.874586,1.06288 -2.879325,1.43966 -0.146151,0.0548 -6.231491,2.05713 -6.478479,1.43966 -0.783963,-1.95991 1.984748,-11.51729 0,-11.51729 -5.53306,0 -24.168529,1.23261 -28.073411,-0.71983 -3.524882,-1.76245 5.644547,-9.44562 7.19831,-11.5173 0.152985,-0.20398 1.405091,-3.14232 0.719831,-3.59916 -0.631333,-0.42089 -1.508853,-0.32945 -2.159493,-0.71983 -0.581948,-0.34917 -0.857713,-1.09049 -1.439661,-1.43966 -2.485522,-1.49131 -1.739276,-0.20389 -4.318987,-0.71983 -2.399437,-0.47989 -0.719831,-0.71983 -2.159492,-2.15949 -0.339333,-0.33934 -1.100331,0.33933 -1.439664,0 -1.489355,-1.48936 2.275935,0.0582 -0.719831,-1.43967 -0.214611,-0.1073 -0.612523,0.21462 -0.71983,0 -0.214612,-0.42922 0.151754,-0.9844 0,-1.43966 -0.271,-0.813 -1.759813,-3.65285 -2.159492,-4.31898 -0.349171,-0.58196 -1.136156,-0.83265 -1.439664,-1.43967 -0.107305,-0.21461 0.505219,0.10731 0.71983,0 0.607015,-0.3035 1.136155,-0.83264 1.439664,-1.43966 0.288719,-0.57744 -0.538289,-2.02334 -0.71983,-2.15949 -0.607015,-0.45526 -1.55248,-0.26457 -2.159495,-0.71983 -0.429223,-0.32192 -0.340448,-1.06028 -0.719831,-1.43967 -1.759653,-1.75965 -2.914225,-0.85943 -3.599155,-3.59915 -0.447757,-1.79103 -0.279776,-4.97907 0.719831,-6.47848 0.402879,-0.60432 2.958419,-1.36057 2.159493,-2.15949 -0.169666,-0.16967 -0.520186,0.13309 -0.719831,0 -0.810348,-0.54023 -6.644061,-5.92423 -7.198311,-6.47848 -2.437609,-2.43761 -3.988833,-9.62843 -2.879324,-12.95696 0.555527,-1.66658 5.322841,-5.65746 6.47848,-7.19831 0.287932,-0.38392 0,-0.95978 0,-1.43967 0,-3.571929 -2.685301,-4.456746 -3.599156,-7.198311 -0.379384,-1.138153 -0.235284,-2.422734 0,-3.599154 0.806921,-4.034604 6.919799,-4.644604 7.918142,-8.637973 1.197761,-4.791049 -2.300133,-15.695644 1.439662,-19.43544 2.811044,-2.811044 5.167302,-1.663681 8.637973,-2.159492 0.751142,-0.107307 1.41546,-0.571024 2.159493,-0.719831 0.862859,-0.172571 2.776712,0.411221 3.599156,0 2.497619,-1.248809 3.880397,-4.600231 5.758648,-6.478481 1.531982,-1.53198 4.530653,-2.476992 5.758648,-4.318984 0.438372,-0.657559 0.614434,-1.74688 1.439662,-2.159495 1.513451,-0.756724 5.873707,3.541628 8.637973,2.159495 0.910521,-0.455264 1.386573,-1.496992 2.159492,-2.159495 1.263955,-1.08339 6.207152,-4.543237 7.198313,-5.038818 3.233144,-1.616572 4.230634,5.294972 7.198309,3.599156 5.996919,-3.426809 12.861801,-10.471425 17.995776,-15.116452 3.147847,-2.848052 6.356109,-5.636278 9.357809,-8.637973 0.37938,-0.379384 0.23994,-1.199718 0.71983,-1.439661 0.97192,-0.485963 3.3491,7.19831 5.75865,7.19831 4.65121,0 20.61404,-3.369769 23.03459,-2.159493 0.7738,0.386897 1.54776,0.827923 2.15949,1.439662 0.16967,0.169666 -0.23278,0.661636 0,0.719831 4.07107,1.017766 8.59907,-3.1063 12.23713,-4.318986 1.87709,-0.625697 3.88156,-0.813966 5.75865,-1.439663 1.73358,-0.57786 3.28177,-1.657479 5.03882,-2.159493 1.23337,-0.352391 16.05603,-1.219916 16.55611,-0.719831 3.30731,3.307308 0.13581,1.466825 3.59916,2.159493 0.74403,0.148807 1.40536,0.636039 2.15949,0.719831 5.37496,0.597218 11.26911,-1.057401 16.55612,0 0.33274,0.06655 0.39791,0.612525 0.71983,0.719832 0.45526,0.151753 1.01043,-0.214613 1.43966,0 0.58335,0.291675 -1.3512,1.258693 2.15949,3.599155 12.53556,8.357038 17.43254,11.728129 33.11223,10.077634 0.67493,-0.07105 0.83265,-1.136155 1.43966,-1.439661 1.91003,-0.955014 -1.19077,2.568217 -1.43966,2.879325 -4.20786,5.259829 -8.0154,4.490207 -2.15949,11.517297 1.77479,2.129755 4.32983,2.385205 6.47848,4.318984 3.63242,3.269178 7.33898,6.619147 10.79746,10.077635 0.61174,0.61174 2.1595,1.679607 1.43966,2.159495 -0.63133,0.420888 -1.43966,0.479888 -2.15949,0.71983 -1.6796,0.959774 -3.45402,1.769968 -5.03882,2.879323 -0.83397,0.583782 -1.37745,1.507789 -2.15949,2.159495 -3.94852,3.290435 -7.91814,5.673016 -7.91814,11.517296 0,2.411405 0.16752,4.851009 0.71983,7.19831 0.18338,0.779383 5.2853,10.550988 3.59916,12.237128 -2.13212,2.13212 -5.58375,3.22318 -7.91815,5.03882 -1.07141,0.83332 -1.80791,2.04601 -2.87932,2.87933 -1.10438,0.85896 -2.5639,1.21835 -3.59916,2.15949 -5.86204,5.32913 -9.28094,12.25613 -12.23712,19.43544 -0.98396,2.38962 -2.57738,4.63174 -2.87933,7.19831 -0.54928,4.66886 1.98395,4.68772 3.59916,7.91814 0.44243,0.88487 0.21083,2.031 0.71983,2.87933 0.27604,0.46007 1.19972,0.23994 1.43966,0.71983 0.85177,1.70353 -0.55545,5.78357 -1.43966,7.19831 -0.81429,1.30285 -2.16047,2.24131 -2.87933,3.59915 -17.7065,33.44562 12.94616,-19.17749 -9.3578,17.99578 -0.99528,1.65881 -1.85405,3.39837 -2.87932,5.03882 -0.18922,0.30274 -1.43967,1.85797 -1.43967,2.15949 0,0.53653 0.38467,1.0207 0.71984,1.43966 1.59336,1.99171 3.10222,4.09872 5.03881,5.75865 0.87036,0.74602 8.95103,4.22526 9.35781,5.03882 1.34108,2.68217 -1.08639,6.84503 -2.87933,8.63797 -2.36602,2.36602 -6.33497,1.78164 -9.3578,2.15949 -10.3963,1.29954 -18.92952,1.56511 -28.07341,-5.03881 -6.21383,-4.48777 -7.36256,-15.5812 -15.83629,-17.27595 -3.35389,-0.67078 -7.58171,2.50719 -10.07763,3.59916 -1.8782,0.82171 -3.89726,1.30039 -5.75865,2.15949 -2.53632,1.17061 -3.59323,2.87932 -6.47848,2.87932 -0.23994,0 0.14397,-0.52787 0,-0.71983 -0.6108,-0.81439 -1.47849,-1.40282 -2.15949,-2.15949 -1.47987,-1.6443 -2.69792,-3.53354 -4.31899,-5.03882 -0.35867,-0.33305 -12.18861,-9.61392 -12.95696,-9.3578 -6.35759,2.11919 -1.9797,11.06781 -3.59915,15.11645 -0.19926,0.49816 -1.06028,0.34045 -1.43967,0.71983 -1.42854,1.42854 3.40894,0.22751 -1.43966,1.43966 -4.89451,1.22363 -15.616024,-0.73459 -19.435438,-3.59915 -0.575863,-0.4319 0.227631,-1.4766 0,-2.1595 -0.107305,-0.32191 -0.719831,-0.3805 -0.719831,-0.71983 0,-1.69665 0.479888,-3.35921 0.719831,-5.03881 z"
       id="path1" />
    <path
       style="fill:#803300;stroke-width:0.264583"
       d="m 97.177192,175.63878 c 0.363834,4.28909 2.548437,9.2417 1.439664,13.67679 -0.260258,1.04102 -1.041138,1.88301 -1.439664,2.87932 -0.235985,0.58997 -0.376296,2.91209 -0.719831,3.59916 -0.303506,0.60702 -1.275061,0.78126 -1.439661,1.43966 -0.429681,1.71872 0.10446,4.11007 -0.719831,5.75865 -0.523163,1.04633 -1.691664,2.19567 -2.159495,3.59916 -0.151752,0.45526 0.214614,1.01043 0,1.43966 -0.107304,0.21461 -0.550164,-0.16967 -0.719831,0 -0.848328,0.84833 -1.439661,1.91955 -2.159492,2.87932 -1.456713,1.94229 0.01207,1.17962 -1.439661,3.59916 -0.523756,0.87292 -1.248971,1.70423 -2.159495,2.15949 -0.214611,0.10731 -0.612523,-0.21461 -0.71983,0 -0.214612,0.42922 0.214611,1.01044 0,1.43966 -0.303507,0.60702 -1.090494,0.85772 -1.439662,1.43966 -0.6648,1.108 -0.861801,2.44344 -1.439661,3.59916 -0.598271,1.19654 -2.302579,3.45607 -2.159495,3.59916 0.169667,0.16966 0.481356,-0.0265 0.719831,0 1.922655,0.21362 3.861728,0.34044 5.758648,0.71983 6.442183,1.84062 3.315769,1.15248 9.357804,2.15949 3.998619,0.66643 6.68101,2.31322 10.07764,2.87932 9.68521,1.61421 22.83388,-2.11317 32.39239,-4.31898 3.32353,-0.76697 6.11187,-0.31409 9.35781,-0.71983 1.51729,-0.18966 9.38441,-2.23931 10.07763,-4.31899 0.30351,-0.91052 0,-1.91955 0,-2.87932 0,-3.42496 -0.68978,-7.34071 -2.87932,-10.07764 -0.42396,-0.52994 -1.09049,-0.85771 -1.43966,-1.43966 -0.39039,-0.65064 -0.31769,-1.51606 -0.71983,-2.15949 -2.59952,-4.15924 -6.32148,-7.72189 -9.35781,-11.5173 -3.15948,-3.94935 -3.80688,-17.67699 -2.87932,-22.31476 0.27117,-1.35585 1.53827,-3.07654 2.15949,-4.31899"
       id="path2" />
    <path
       style="fill:#552200;stroke-width:0.264583"
       d="m 349.8379,245.46239 c 0.67842,-5.64492 -0.93377,-11.67343 0,-17.27594 0.0882,-0.52923 0.6146,-0.91356 0.71983,-1.43967 0.14118,-0.70585 -0.11835,-1.44945 0,-2.15949 0.47352,-2.84122 1.43965,-3.38179 1.43965,-6.47848 0,-1.44653 -0.27882,-9.07898 0,-9.3578 0.62171,-0.62171 5.7051,0 6.47848,0 1.37054,0 5.16718,0.28273 6.47848,0.71983 0.32192,0.1073 0.39793,0.61252 0.71982,0.71983 0.91054,0.30351 1.98822,-0.35645 2.87933,0 1.60266,0.64106 3.22302,2.57669 5.03883,2.87932 0.94671,0.15779 1.9326,-0.15778 2.87933,0 0.52922,0.0882 0.91355,0.61461 1.43965,0.71983 0.70586,0.14117 1.46116,-0.17458 2.15951,0 0.32919,0.0823 0.39063,0.63754 0.71982,0.71983 1.94561,0.48641 9.44713,0.41403 11.51729,0 0.52612,-0.10522 0.90315,-0.71983 1.43967,-0.71983 0.23995,0 0,0.47989 0,0.71983 0,1.19972 0,2.39944 0,3.59916 0,2.17864 -0.42748,3.71228 -0.71982,5.75865 -0.53314,3.73195 1.32805,9.5438 -0.71985,12.95696 -0.34917,0.58195 -1.09048,0.85771 -1.43965,1.43966 -0.74293,1.2382 -0.65625,2.84753 -2.15951,3.59916 -8.05966,4.02983 -30.16149,-6.52609 -36.71138,-2.1595 -1.72501,1.15001 -1.8106,4.53758 -2.15948,5.75865 z"
       id="path3" />
    <path
       style="fill:#008000;stroke-width:0.264583"
       d="m -279.29445,184.99658 c -0.24215,-3.23044 0.0882,-6.1995 0.71982,-9.3578"
       id="path4" />
    <path
       style="fill:#008000;stroke-width:0.264583"
       d="m 353.43705,210.9105 c -6.44649,-1.49654 -16.70732,-0.87103 -21.59494,-5.75865 -2.93831,-2.93833 -1.23418,-6.06753 -2.15948,-7.91814 -0.26334,-0.52668 -4.70686,2.71334 -5.03883,2.87932 -2.03073,1.01537 -10.92994,0.97321 -12.95696,0.71984 -0.7529,-0.0941 -1.40835,-0.61253 -2.15948,-0.71984 -0.95015,-0.13573 -1.93821,0.18823 -2.87933,0 -0.66548,-0.13309 -0.83264,-1.13615 -1.43965,-1.43966 -0.21463,-0.1073 -0.55017,0.16967 -0.71985,0 -0.30496,-0.30497 -1.88923,-3.3289 -2.15948,-3.59915 -0.87714,-0.87714 -7.09353,-1.64468 -8.63798,-2.1595 -0.32192,-0.1073 -0.39791,-0.61252 -0.71983,-0.71983 -0.45527,-0.15175 -0.98441,0.15176 -1.43967,0 -3.644,-1.21467 -9.88389,-6.22014 -12.23712,-9.3578 -0.51527,-0.68705 0.22027,-7.5366 0,-8.63797 -0.45516,-2.27582 -1.32,-4.79767 -0.71982,-7.19832 0.34832,-1.39333 5.35323,-4.00455 3.59915,-5.75864 -1.18078,-1.18078 -3.14132,-2.12707 -4.319,-3.59916 -0.88757,-1.10948 -3.22173,-7.12834 -3.59916,-8.63797 -0.25188,-1.00761 -0.33787,-3.30531 0,-4.31899 0.3542,-1.06257 2.82647,-0.82559 2.15951,-2.15949 -2.02682,-4.05362 -10.43144,-5.02661 -12.23713,-8.63797 -1.04998,-2.09996 1.3718,-5.94206 2.87932,-7.19831 0.82436,-0.68696 1.98649,-0.84444 2.87932,-1.43966 1.12938,-0.75292 1.66529,-2.27232 2.87933,-2.87933 1.3734,-0.6867 1.38713,0.8249 2.15951,-0.71983 0.0484,-0.0968 -1.31554,-7.17324 -1.43968,-7.91814 -0.38203,-2.29227 -0.67673,-10.9268 0,-12.95696 0.0759,-0.22763 0.4922,0.0759 0.71982,0 2.45989,-0.819961 2.55651,-2.979657 2.15951,-5.75865 -0.49059,-3.434083 -8.14811,-11.777194 -6.47849,-15.116453 0.10732,-0.214611 0.5202,0.133096 0.71983,0 0.5647,-0.376454 0.83264,-1.136155 1.43968,-1.439661 0.97729,-0.488651 6.4507,-0.941258 7.1983,-1.439661 0.44641,-0.297614 0.34044,-1.060278 0.71983,-1.439665 0.16968,-0.169664 0.68591,0.237533 0.71983,0 0.8048,-5.633619 -5.64682,-20.341645 -3.59916,-23.754423 0.44511,-0.741844 1.54776,-0.827924 2.1595,-1.439664 1.47122,-1.471229 1.09847,-2.530645 2.87933,-3.599154 3.48208,-2.089242 8.56964,-1.37133 11.51729,-4.318987 0.53652,-0.53653 0.26458,-1.552477 0.71982,-2.159492 2.98964,-3.986149 7.86506,-9.059251 12.95697,-10.077635 4.1925,-0.838504 5.58498,5.038818 9.35781,5.038818 0.23995,0 -0.034,-0.482301 0,-0.719831 0.2064,-1.444852 0.11588,-2.990289 0.71982,-4.318987 0.63577,-1.398677 1.9575,-2.370045 2.87933,-3.599156 1.23844,-1.651259 2.08246,-3.638797 3.59915,-5.038817 3.59217,-3.315848 11.06903,-6.796433 15.83629,-7.918142 6.78628,-1.596771 13.97649,-1.753691 20.8751,-2.159493 2.56154,-0.150678 6.49682,-1.292029 9.35781,-0.719831 1.68966,0.337932 7.17,2.145335 8.63796,2.879324 0.60703,0.303507 0.95977,0.959775 1.43968,1.439662 1.67724,1.677266 5.41943,0.313917 7.1983,0 7.35029,-1.29711 9.83067,-2.384469 17.99577,-2.879324 4.31109,-0.261277 8.63798,0 12.95696,0 4.79888,0 9.62843,-0.541839 14.39662,0 5.84467,0.664168 11.54154,2.288435 17.27594,3.599155 2.667,0.6096 5.39282,1.107271 7.91816,2.159493 0.85458,0.356074 1.10871,4.261042 0.71982,5.038818 -0.10731,0.214612 -0.55017,-0.169666 -0.71982,0 -0.16968,0.169666 -0.20577,0.596381 0,0.719831 1.10799,0.664799 2.34558,1.126273 3.59915,1.439662 4.24783,1.061957 8.67833,1.229357 12.95696,2.159493 6.02814,1.310465 12.09411,2.522831 17.99577,4.318987 2.47232,0.75244 4.74665,2.062104 7.19831,2.879325 0.45527,0.151752 1.10035,-0.339333 1.43968,0 0.54946,0.549458 -0.71702,3.591653 -0.71986,3.599154 -0.45368,1.209865 -0.81213,2.469626 -1.43965,3.599156 -1.96511,3.537206 -7.3397,8.213772 -5.75865,12.956958 1.20033,3.600973 10.0203,10.654125 11.51731,14.396622 0.44556,1.113911 0,2.399437 0,3.599156 0,8.303913 -4.74271,7.960796 -10.07764,13.676788 -3.37513,3.616214 -6.44837,7.516831 -9.35781,11.517297 -1.82459,2.508807 -1.41419,3.497267 -2.1595,6.478477 -1.65409,6.61638 0.39495,10.68269 1.43968,17.99578 0.2036,1.42519 -0.13036,2.88524 0,4.31899 0.11075,1.21845 0.98523,2.40481 0.71982,3.59915 -0.26024,1.17115 -1.49402,1.8811 -2.1595,2.87933 -3.76473,5.64711 -6.99047,10.61933 -12.23711,15.11645 -3.81436,3.26946 -10.18855,7.0878 -12.95696,11.51729 -3.46297,5.54075 2.91878,6.8828 5.75865,10.07764 1.14951,1.29321 1.82436,2.94754 2.87931,4.31899 4.00166,5.20216 10.01593,8.80229 10.79748,15.83628 0.15896,1.43086 0.17857,2.89044 0,4.31899 -0.36166,2.8931 -10.42786,10.94666 -12.23714,12.95695 -6.70567,7.45076 1.75657,0.44254 -4.31897,5.75865 -1.00235,0.87705 -4.7601,3.54099 -5.75866,5.03882 -1.9536,2.93042 0.87305,5.08505 1.43965,7.91814 0.81383,4.06914 -5.84631,7.96198 -8.63796,9.35781 -0.51975,0.25987 -5.93542,2.04468 -7.1983,2.15949 -1.67376,0.15216 -15.23246,0.52947 -16.55612,0 -0.63013,-0.25205 -0.87498,-1.06321 -1.43968,-1.43966 -3.60802,-2.40536 -7.32721,-4.59564 -10.79746,-7.19831 -2.03917,-1.52938 -0.75083,-0.18771 -2.87933,-0.71983 -0.74946,-0.18737 -5.0637,-3.20206 -5.75863,-3.59916 -2.34159,-1.33804 -6.02088,-3.14154 -7.91816,-5.03882 -0.96895,-0.96897 -0.96723,-2.15949 -2.15947,-2.15949"
       id="path5" />
    <path
       style="fill:#803300;stroke-width:0.264583"
       d="m 55.42699,488.76529 c 0.239946,-1.19973 0.237882,-2.4746 0.719834,-3.59916 0.534675,-1.24759 2.064927,-1.79345 2.879322,-2.87932 3.314177,-4.41889 -1.408665,1.37768 0.719831,-2.87933 0.107307,-0.2146 0.586735,0.19965 0.719831,0 4.277889,-6.41684 -0.381331,-0.12642 0.719833,-2.87933 0.398524,-0.99631 0.887577,-1.95916 1.439662,-2.8793 0.174585,-0.29099 0.67184,-0.38391 0.71983,-0.71985 0.2036,-1.42518 -0.178567,-2.89044 0,-4.31898 0.160269,-1.28215 1.279393,-2.31701 1.439662,-3.59916 0.284062,-2.2725 -0.45312,-4.9327 0,-7.1983 0.297614,-1.48807 1.14205,-2.83094 1.439661,-4.31898 0.574342,-2.87171 0.742794,-5.85049 1.439664,-8.63799 0.479203,-1.9168 1.905995,-3.73067 2.159492,-5.75865 0.238091,-1.90471 -0.271465,-3.85839 0,-5.75863 0.139912,-0.97938 0.579922,-1.89997 0.719831,-2.87933 0.456435,-3.19505 0.60629,-10.64535 0,-13.67679 -0.105222,-0.52612 -0.66058,-0.90641 -0.719831,-1.43968 -0.228801,-2.05922 -0.498747,-6.86405 0,-9.35781 0.470276,-2.35135 2.428674,-4.22521 2.879326,-6.47845 0.402939,-2.01472 0.158885,-4.51519 0.71983,-6.47848 0.442188,-1.54768 1.76911,-2.75746 2.159492,-4.31901 0.116391,-0.46556 0,-0.95977 0,-1.43965 0.239946,-0.71982 0.511382,-1.42991 0.719831,-2.1595 1.434166,-5.01957 0.02558,-0.83489 1.439664,-7.19831 0.97299,-4.37845 2.90897,-8.72691 4.318984,-12.95696 0.468337,-1.40499 0.971328,-2.91399 1.439664,-4.31898 0.19176,-0.57528 -0.406048,-2.47327 0,-2.87933 0.169665,-0.16965 0.661636,0.23278 0.719831,0 0.594995,-2.37998 0,-5.43179 0,-7.91813 0,-4.22161 0.459756,-11.19682 1.439662,-15.11647 0.921736,-3.68694 0,-10.52975 0,-14.39661 0,-3.60714 0.71983,-7.19032 0.71983,-10.79746 0,-1.22349 -0.568076,-2.38514 -0.71983,-3.59915 -0.984653,-7.87723 -0.05243,-19.17333 1.439661,-26.63376 0.261853,-1.30926 1.504143,-6.93512 2.159495,-7.91813 0.133096,-0.19965 0.612523,0.21461 0.71983,0 0.9519,-1.90381 -0.470765,-3.12841 1.439662,-5.03883 0.169666,-0.16968 0.550166,0.16968 0.71983,0 1.489359,-1.48937 -2.275932,0.0582 0.719831,-1.43965 1.073063,-0.53654 2.43526,-0.29099 3.599156,0 0.3292,0.0823 0.397912,0.61251 0.719831,0.71983 0.455263,0.15173 1.010438,-0.21463 1.439664,0 0.08725,0.0436 0.603279,2.04292 0.719831,2.15947 0.53653,0.53655 1.439663,0.4799 2.159493,0.71985 1.08884,0.36293 4.9391,-0.81954 5.75865,0 1.39657,1.39655 0.86177,4.03003 2.87932,5.03881 1.31083,0.65542 4.99823,-2.20009 5.75865,-1.43965 1.21641,1.21639 1.85795,3.44836 3.59916,4.31898 0.42922,0.2146 0.95977,0 1.43966,0 4.22261,0 6.31917,-1.56062 8.63797,-5.03881 0.56468,-0.84704 1.70423,-3.07004 2.15949,-2.1595 1.86863,3.73724 3.59529,16.55654 10.07764,15.83629 6.32886,-0.70321 12.20044,-5.60001 17.99577,-7.91816 2.21601,-0.88641 2.7388,1.2114 4.31899,2.1595 0.4115,0.24691 1.04037,-0.26619 1.43966,0 1.7082,1.1388 0.37432,2.15951 3.59916,2.15951 0.71983,0 1.46115,0.17457 2.15949,0 1.30025,-0.32507 2.52555,-3.11108 4.31899,-0.71985 1.47774,1.97032 1.58249,4.89032 2.15949,7.1983 0.60693,2.42771 1.57101,4.84439 2.15949,7.19834 0.84713,3.38846 -0.68587,7.36809 0,10.79746 0.78446,3.92226 3.48369,6.5786 5.03882,10.07763 0.61633,1.38674 0.761,2.96167 1.43966,4.31898 2.34366,4.68733 0.72141,-1.43491 2.1595,2.87933 0.91779,2.75338 -0.47694,6.49615 0,9.35781 0.0882,0.52922 0.61461,0.91355 0.71983,1.43965 1.12628,5.63139 -0.4838,12.91005 0,18.71562 0.24241,2.90896 1.11731,5.73677 1.43966,8.63796 0.38777,3.4899 0,7.30056 0,10.79746 0,3.9548 0.56003,8.31693 0,12.23713 -0.61653,4.3157 -1.9191,7.66961 -2.15949,12.23714 -0.31345,5.95548 0,12.02328 0,17.99577 0,1.5975 0.31211,3.47826 0,5.03883 1.5116,2.02494 -1.22922,1.82708 -1.43967,2.8793 -0.18822,0.94115 0.11905,1.92696 0,2.87933 -0.2319,1.85523 -1.72,5.76998 -2.15949,7.19831 -1.34278,4.36406 -2.4279,8.44277 -2.87932,12.95696 -0.48363,4.83627 -0.81538,11.95049 0.71983,16.55612 0.1073,0.32192 0.61252,0.3979 0.71983,0.71982 0.22763,0.68289 -0.509,1.6505 0,2.1595 0.33933,0.33933 1.22505,-0.42923 1.43966,0 0.21461,0.42924 -0.11639,0.97409 0,1.43966 0.51743,2.06972 1.87203,3.35999 2.87933,5.03883 1.45172,2.41953 -0.017,1.65687 1.43966,3.59915 1.03164,1.37552 2.3621,2.7673 2.87932,4.31898 0.15176,0.45527 -0.21461,1.01044 0,1.43968 0.30351,0.607 1.06321,0.87497 1.43966,1.43965 0.39929,0.59893 -0.32191,1.51566 0,2.1595 0.10731,0.2146 0.71984,-0.23995 0.71984,0 0,0.18857 -6.49656,2.01914 -7.19832,2.15948 -1.4117,0.28236 -2.90728,-0.28234 -4.31898,0 -0.52611,0.10522 -0.91915,0.5897 -1.43966,0.71985 -1.66719,0.41677 -4.03247,0 -5.75865,0 -5.92768,0 -12.10105,-0.49125 -17.99578,0 -12.42484,1.03539 5.31106,0.71982 -10.07763,0.71982 -2.68216,0 -14.80153,-1.23722 -18.71561,0.71983 -0.7738,0.3869 -0.87665,1.50265 -1.43966,2.1595 -0.88334,1.03055 -2.04601,1.8079 -2.87933,2.87933 -1.93532,2.48827 -2.82388,6.93986 -5.75865,7.91813 -10.52085,3.50695 -9.81247,0.34097 -18.7156,-1.43968 -0.915895,-0.18317 -1.961687,0.15296 -2.879328,0 -2.413661,-0.40227 -4.784648,-1.03737 -7.19831,-1.43965 -2.317956,-0.38631 -6.610847,-0.21304 -8.637973,-0.71982 -0.512924,-0.12825 -3.292631,-1.36303 -3.599154,-1.43968 -1.396677,-0.34917 -2.907281,0.28236 -4.318987,0 -2.570331,-0.51406 -5.245586,-1.71405 -7.918143,-2.15948 -1.807421,-0.30125 -4.251153,0.78767 -5.758648,-0.71982 -1.56424,-1.56424 -2.879323,-3.35923 -4.318987,-5.03883 z"
       id="path6" />
    <path
       style="fill:#803300;stroke-width:0.264583"
       d="m 177.07844,331.12228 c 2.93068,-1.5776 7.63188,1.05521 10.79747,0 0.22763,-0.0759 -0.16967,-0.55015 0,-0.71982 0.16966,-0.16968 0.55016,0.16967 0.71983,0 0.37938,-0.37939 0.2906,-1.11774 0.71983,-1.43966 0.60701,-0.45526 1.50885,-0.32945 2.15949,-0.71985 1.12535,-0.67519 2.44765,-2.11164 3.59916,-2.8793 0.93723,-0.62484 1.88657,-1.66314 2.87932,-2.1595 1.29984,-0.64992 8.3642,-0.11152 10.79747,-0.71983 4.84859,-1.21216 0.0111,-0.0111 1.43966,-1.43967 1.38452,-1.38452 4.78044,-1.67434 6.47848,-2.15948 1.40336,-0.40098 2.93436,-0.25831 4.31899,-0.71985 0.31992,-0.10663 -0.55987,-1.57295 0.71983,-0.71983 2.14989,1.43328 4.70732,3.48867 7.19831,4.31898 1.48884,0.49631 2.1103,0.22357 3.59915,0.71985 1.80136,0.60045 8.56979,-0.78803 9.35781,0 1.14235,1.14234 -2.73951,3.45932 -2.87933,3.59916 -0.33933,0.33932 0.33933,1.10032 0,1.43965 -0.19293,0.19293 -9.66159,-0.10401 -10.07763,0 -0.98388,0.24598 -1.08731,1.0873 -1.43967,1.43967 -0.73802,0.73803 -4.56584,-0.1988 -5.75864,0 -2.23413,0.37235 -3.23307,1.97644 -5.03882,2.87931 -0.91988,0.45995 -13.66853,-0.008 -14.39662,0.71985 -0.16967,0.16965 0.21461,0.61251 0,0.71982 -0.80093,0.40048 -4.25816,0.659 -5.03882,1.43965 -0.16966,0.16968 0.19965,0.58674 0,0.71986 -0.63133,0.42087 -1.48083,0.38049 -2.15949,0.71982 -0.30351,0.15174 -0.39063,0.63751 -0.71983,0.71983 -2.20303,0.55075 -10.32301,0.9652 -11.5173,2.1595"
       id="path7" />
    <path
       style="fill:#803300;stroke-width:0.264583"
       d="m 83.500403,380.07081 c -0.959776,0 -2.879325,-0.95978 -2.879325,0 0,0.95977 3.839099,0 2.879325,0 -2.159494,0 -4.429804,0.68288 -6.478478,0 -2.370326,-0.79013 -5.079307,-1.46667 -7.198313,-2.87933 -3.019623,-2.01309 -0.139732,-1.57941 -1.439661,-2.87933 -0.528894,-0.5289 -2.869809,-1.91638 -3.599156,-2.1595 -2.116236,-0.70541 -5.00329,0.31358 -7.19831,0 -0.979371,-0.13992 -1.903473,-0.55719 -2.879325,-0.71983 -3.775147,-0.62918 -8.18491,0.94636 -11.517297,-0.71982 -0.599323,-0.29967 -2.422726,0.45659 -2.879323,0 -0.169666,-0.16968 0.214612,-0.61254 0,-0.71983 -1.97299,-0.9865 -4.51032,-0.78362 -6.478481,-1.43968 -0.221142,-0.0737 -2.301015,-1.29812 -2.879323,-0.71982 -0.169667,0.16967 0.107304,0.50522 0,0.71982 -0.164965,0.32994 -3.37535,4.20709 -3.599156,4.31901 -1.163248,0.58161 -4.172193,-0.86664 -5.038817,0 -0.732604,0.7326 1.697126,1.69711 2.159493,2.15947 1.561061,1.56107 -0.07931,0.26004 3.599155,0.71983 1.974635,0.24683 4.428132,1.95225 6.478481,1.43968 1.415942,-0.35399 2.934362,-0.25829 4.318984,-0.71983 0.162992,-0.0543 -0.382153,-0.71985 1.439664,-0.71985 6.272639,0 -2.077159,-0.33933 2.159492,0.71985 0.698339,0.17457 1.515658,-0.32192 2.159493,0 0.479888,0.23993 0.340447,1.06027 0.719833,1.43965 0.311748,0.31176 2.414743,1.12996 2.879323,1.43968 2.252485,1.50164 4.061751,3.58878 6.478479,5.0388 2.207053,1.32424 4.694602,2.37858 7.198312,2.87933 1.563036,0.31261 3.505496,-0.25556 5.038817,0 0.325168,0.0542 7.688816,1.93016 7.918141,2.1595 0.288128,0.28811 0.389845,0.91475 1.439661,1.43966 1.011558,0.50577 3.885848,0 5.038818,0"
       id="path8" />
    <path
       style="fill:#000000;stroke-width:0.264583"
       d="m 106.535,369.27334 c 0,1.1997 -1.19972,3.59916 0,3.59916 1.19972,0 0,-4.79888 0,-3.59916 0,6.26486 0.12444,11.26842 -2.1595,15.83627 -0.27068,0.54139 0.33297,1.66005 0,2.1595 -0.37645,0.56468 -1.13615,0.83265 -1.43966,1.43965 -0.48311,0.96623 0.34502,2.56411 0,3.59916 -0.16966,0.509 -0.55016,0.93067 -0.71983,1.43967 -0.47706,1.43119 0.66887,3.70107 0,5.03881 -1.40912,2.81823 -1.01361,8.47648 0,11.51731 0.74894,2.24682 0.47989,-0.23995 1.43966,0.71983 0.33933,0.33932 -0.21461,1.01044 0,1.43965 1.09759,2.19516 0.57066,-1.31652 1.43967,2.1595 0.51469,2.05877 -0.93576,5.3268 0,7.19831 0.18014,0.36028 2.50101,-0.2522 2.87932,0 0.56468,0.37645 0.87498,1.0632 1.43966,1.43967 0.19965,0.13309 0.55017,-0.16967 0.71983,0 0.62638,0.62638 0.85987,2.94934 2.15949,3.59916 3.8391,1.91955 -2.15949,-2.15951 0.71984,0.71982 0.35991,0.35992 1.79957,-0.35991 2.15949,0 2.0423,2.04229 1.25368,4.35618 5.03882,3.59916 0.74403,-0.14881 1.62296,-0.18331 2.15949,-0.71983 0.31906,-0.31906 2.18758,-5.32559 2.87933,-6.47848 0.39038,-0.65064 1.47859,-2.1595 0.71983,-2.1595 -0.61294,0 1.31488,2.09711 1.43966,2.1595 0.94038,0.47019 1.31908,-0.83677 1.43966,-1.43968 0.28624,-1.43116 0.4336,-2.88779 0.71983,-4.31898 0.0129,-0.0644 -0.20295,-2.67636 0,-2.87933 0.20374,-0.20372 1.31614,-0.51395 1.43966,-0.71982 1.96993,-3.28322 3.58731,-13.74788 2.87933,-17.99577 -0.0552,-0.33099 -1.29049,-3.44998 -1.43967,-3.59915 -0.16966,-0.16968 -0.55016,0.16965 -0.71983,0 -1.56552,-1.56554 1.04605,-7.26572 0,-9.35781 -0.47408,-0.94816 -1.6854,-1.93117 -2.15949,-2.87933 -1.05931,-2.11862 -0.90986,-3.63945 -1.43966,-5.75866 -0.49929,-1.99718 -0.65642,0.0634 -1.43966,-0.71982 -0.63246,-0.63246 -1.16936,-13.99117 -1.43966,-14.39662 -0.37646,-0.5647 -1.25322,-0.7871 -1.43967,-1.43967 -0.32959,-1.15356 0.14881,-2.40869 0,-3.59916 -0.18823,-1.50582 -0.65889,-3.0177 -1.43966,-4.31897 -0.34917,-0.58196 -1.13616,-0.83265 -1.43966,-1.43966 -0.32192,-0.64383 0.32192,-1.51566 0,-2.1595 -0.38226,-0.76451 -2.90497,-7.17267 -3.59916,-6.47848 -0.53653,0.53652 -0.29894,1.52815 -0.71983,2.1595 -1.10247,1.6537 -0.41116,-0.30866 -2.15949,1.43965 -0.65234,0.65233 -1.33791,4.32652 -1.43966,5.03883 -0.11671,0.81691 0.5375,4.68363 0,5.75863 -2.34685,4.69371 -4.37691,9.49296 -6.47848,14.39664 z"
       id="path9" />
  </g>
</svg>
